<svg xmlns="http://www.w3.org/2000/svg" xmlns:xlink="http://www.w3.org/1999/xlink" version="1.1" width="256" height="256" viewBox="0 0 256 256" xml:space="preserve">

<defs>
</defs>
<g style="stroke: none; stroke-width: 0; stroke-dasharray: none; stroke-linecap: butt; stroke-linejoin: miter; stroke-miterlimit: 10; fill: none; fill-rule: nonzero; opacity: 1;" transform="translate(1.4065934065934016 1.4065934065934016) scale(2.81 2.81)" >
	<path d="M 66.407 71.023 H 39.801 c -0.552 0 -1 -0.447 -1 -1 V 16.4 c 0 -0.552 0.448 -1 1 -1 h 37.063 c 0.553 0 1 0.448 1 1 v 33.236 c 0 0.553 -0.447 1 -1 1 s -1 -0.447 -1 -1 V 17.4 H 40.801 v 51.624 h 25.606 c 0.553 0 1 0.447 1 1 S 66.96 71.023 66.407 71.023 z" style="stroke: none; stroke-width: 1; stroke-dasharray: none; stroke-linecap: butt; stroke-linejoin: miter; stroke-miterlimit: 10; fill: rgb(0,0,0); fill-rule: nonzero; opacity: 1;" transform=" matrix(1 0 0 1 0 0) " stroke-linecap="round" />
	<path d="M 71.506 34.488 H 45.159 c -0.552 0 -1 -0.448 -1 -1 V 21.758 c 0 -0.552 0.448 -1 1 -1 h 26.347 c 0.553 0 1 0.448 1 1 v 11.729 C 72.506 34.04 72.059 34.488 71.506 34.488 z M 46.159 32.488 h 24.347 v -9.729 H 46.159 V 32.488 z" style="stroke: none; stroke-width: 1; stroke-dasharray: none; stroke-linecap: butt; stroke-linejoin: miter; stroke-miterlimit: 10; fill: rgb(0,0,0); fill-rule: nonzero; opacity: 1;" transform=" matrix(1 0 0 1 0 0) " stroke-linecap="round" />
	<path d="M 51.056 65.665 h -5.896 c -0.552 0 -1 -0.447 -1 -1 v -5.257 c 0 -0.553 0.448 -1 1 -1 h 5.896 c 0.553 0 1 0.447 1 1 v 5.257 C 52.056 65.218 51.608 65.665 51.056 65.665 z M 46.159 63.665 h 3.896 v -3.257 h -3.896 V 63.665 z" style="stroke: none; stroke-width: 1; stroke-dasharray: none; stroke-linecap: butt; stroke-linejoin: miter; stroke-miterlimit: 10; fill: rgb(0,0,0); fill-rule: nonzero; opacity: 1;" transform=" matrix(1 0 0 1 0 0) " stroke-linecap="round" />
	<path d="M 61.28 65.665 h -5.896 c -0.553 0 -1 -0.447 -1 -1 v -5.257 c 0 -0.553 0.447 -1 1 -1 h 5.896 c 0.553 0 1 0.447 1 1 v 5.257 C 62.28 65.218 61.833 65.665 61.28 65.665 z M 56.384 63.665 h 3.896 v -3.257 h -3.896 V 63.665 z" style="stroke: none; stroke-width: 1; stroke-dasharray: none; stroke-linecap: butt; stroke-linejoin: miter; stroke-miterlimit: 10; fill: rgb(0,0,0); fill-rule: nonzero; opacity: 1;" transform=" matrix(1 0 0 1 0 0) " stroke-linecap="round" />
	<path d="M 51.056 55.893 h -5.896 c -0.552 0 -1 -0.447 -1 -1 v -5.257 c 0 -0.553 0.448 -1 1 -1 h 5.896 c 0.553 0 1 0.447 1 1 v 5.257 C 52.056 55.445 51.608 55.893 51.056 55.893 z M 46.159 53.893 h 3.896 v -3.257 h -3.896 V 53.893 z" style="stroke: none; stroke-width: 1; stroke-dasharray: none; stroke-linecap: butt; stroke-linejoin: miter; stroke-miterlimit: 10; fill: rgb(0,0,0); fill-rule: nonzero; opacity: 1;" transform=" matrix(1 0 0 1 0 0) " stroke-linecap="round" />
	<path d="M 61.28 55.893 h -5.896 c -0.553 0 -1 -0.447 -1 -1 v -5.257 c 0 -0.553 0.447 -1 1 -1 h 5.896 c 0.553 0 1 0.447 1 1 v 5.257 C 62.28 55.445 61.833 55.893 61.28 55.893 z M 56.384 53.893 h 3.896 v -3.257 h -3.896 V 53.893 z" style="stroke: none; stroke-width: 1; stroke-dasharray: none; stroke-linecap: butt; stroke-linejoin: miter; stroke-miterlimit: 10; fill: rgb(0,0,0); fill-rule: nonzero; opacity: 1;" transform=" matrix(1 0 0 1 0 0) " stroke-linecap="round" />
	<path d="M 51.056 46.119 h -5.896 c -0.552 0 -1 -0.448 -1 -1 v -5.257 c 0 -0.552 0.448 -1 1 -1 h 5.896 c 0.553 0 1 0.448 1 1 v 5.257 C 52.056 45.671 51.608 46.119 51.056 46.119 z M 46.159 44.119 h 3.896 v -3.257 h -3.896 V 44.119 z" style="stroke: none; stroke-width: 1; stroke-dasharray: none; stroke-linecap: butt; stroke-linejoin: miter; stroke-miterlimit: 10; fill: rgb(0,0,0); fill-rule: nonzero; opacity: 1;" transform=" matrix(1 0 0 1 0 0) " stroke-linecap="round" />
	<path d="M 71.506 46.119 h -5.897 c -0.553 0 -1 -0.448 -1 -1 v -5.257 c 0 -0.552 0.447 -1 1 -1 h 5.897 c 0.553 0 1 0.448 1 1 v 5.257 C 72.506 45.671 72.059 46.119 71.506 46.119 z M 66.608 44.119 h 3.897 v -3.257 h -3.897 V 44.119 z" style="stroke: none; stroke-width: 1; stroke-dasharray: none; stroke-linecap: butt; stroke-linejoin: miter; stroke-miterlimit: 10; fill: rgb(0,0,0); fill-rule: nonzero; opacity: 1;" transform=" matrix(1 0 0 1 0 0) " stroke-linecap="round" />
	<path d="M 61.28 46.119 h -5.896 c -0.553 0 -1 -0.448 -1 -1 v -5.257 c 0 -0.552 0.447 -1 1 -1 h 5.896 c 0.553 0 1 0.448 1 1 v 5.257 C 62.28 45.671 61.833 46.119 61.28 46.119 z M 56.384 44.119 h 3.896 v -3.257 h -3.896 V 44.119 z" style="stroke: none; stroke-width: 1; stroke-dasharray: none; stroke-linecap: butt; stroke-linejoin: miter; stroke-miterlimit: 10; fill: rgb(0,0,0); fill-rule: nonzero; opacity: 1;" transform=" matrix(1 0 0 1 0 0) " stroke-linecap="round" />
	<path d="M 89 71.899 h -0.944 c 0.203 -1.852 0.483 -3.516 0.761 -5.121 c 0.605 -3.498 1.128 -6.52 0.587 -10.297 c -0.378 -2.631 -2.144 -4.872 -4.564 -5.83 l -1.909 -0.862 c -0.504 -0.228 -1.096 -0.004 -1.323 0.5 c -0.228 0.503 -0.004 1.095 0.499 1.322 l 1.953 0.881 c 1.799 0.713 3.089 2.351 3.364 4.273 c 0.497 3.464 -0.001 6.341 -0.577 9.672 c -0.294 1.699 -0.591 3.464 -0.801 5.462 H 73.187 c 0.566 -2.443 1.762 -4.615 3.438 -6.201 c 0.198 -0.188 0.312 -0.449 0.313 -0.723 s -0.109 -0.535 -0.307 -0.725 l -4.063 -3.906 c -0.351 -0.306 -0.751 -0.535 -1.188 -0.682 c -0.041 -0.014 -0.083 -0.025 -0.126 -0.033 l -4.004 -0.781 c -1.111 -0.403 -1.744 -1.562 -1.478 -2.721 l 0.124 -0.539 c 0.273 -1.186 1.424 -1.971 2.698 -1.777 l 3.871 0.337 c 0.225 0.034 0.44 0.121 0.622 0.248 l 7.507 5.289 c 0.453 0.317 1.076 0.21 1.394 -0.241 c 0.318 -0.452 0.21 -1.075 -0.241 -1.394 l -7.51 -5.291 c -0.436 -0.305 -0.943 -0.508 -1.533 -0.596 l -3.87 -0.337 c -2.228 -0.345 -4.378 1.111 -4.887 3.313 l -0.124 0.539 c -0.504 2.186 0.721 4.372 2.847 5.085 c 0.042 0.014 0.084 0.024 0.127 0.033 l 4.002 0.781 c 0.166 0.063 0.316 0.151 0.42 0.24 l 3.302 3.177 c -1.675 1.867 -2.844 4.265 -3.375 6.903 h -1.239 c -0.553 0 -1 0.447 -1 1 v 7.413 c 0 0.553 0.447 1 1 1 H 89 c 0.553 0 1 -0.447 1 -1 v -7.413 C 90 72.347 89.553 71.899 89 71.899 z M 88 79.313 H 70.906 v -5.413 H 88 V 79.313 z" style="stroke: none; stroke-width: 1; stroke-dasharray: none; stroke-linecap: butt; stroke-linejoin: miter; stroke-miterlimit: 10; fill: rgb(0,0,0); fill-rule: nonzero; opacity: 1;" transform=" matrix(1 0 0 1 0 0) " stroke-linecap="round" />
	<path d="M 49.394 75.188 c -0.553 0 -1 0.447 -1 1 v 3.124 H 2 V 10.688 h 47.394 c 0.553 0 1 -0.448 1 -1 s -0.447 -1 -1 -1 H 1 c -0.552 0 -1 0.448 -1 1 v 70.625 c 0 0.553 0.448 1 1 1 h 48.394 c 0.553 0 1 -0.447 1 -1 v -4.124 C 50.394 75.636 49.946 75.188 49.394 75.188 z" style="stroke: none; stroke-width: 1; stroke-dasharray: none; stroke-linecap: butt; stroke-linejoin: miter; stroke-miterlimit: 10; fill: rgb(0,0,0); fill-rule: nonzero; opacity: 1;" transform=" matrix(1 0 0 1 0 0) " stroke-linecap="round" />
	<path d="M 14.759 27.222 l -1.626 -0.593 c -0.649 -0.19 -1.157 -0.661 -1.394 -1.291 c -0.199 -0.532 -0.18 -1.11 0.056 -1.628 c 0.235 -0.518 0.658 -0.913 1.19 -1.112 c 1.096 -0.413 2.329 0.146 2.742 1.246 c 0.194 0.517 0.771 0.78 1.287 0.585 c 0.517 -0.194 0.779 -0.77 0.585 -1.287 c -0.507 -1.352 -1.653 -2.277 -2.966 -2.573 v -0.851 c 0 -0.552 -0.448 -1 -1 -1 s -1 0.448 -1 1 v 0.916 c -0.117 0.032 -0.234 0.049 -0.35 0.092 c -1.033 0.387 -1.853 1.153 -2.309 2.157 c -0.457 1.004 -0.495 2.126 -0.107 3.158 c 0.459 1.225 1.444 2.139 2.641 2.487 l 1.626 0.593 c 0.649 0.19 1.157 0.661 1.393 1.291 c 0.412 1.099 -0.147 2.329 -1.246 2.741 c -1.098 0.413 -2.33 -0.146 -2.741 -1.246 c -0.194 -0.517 -0.771 -0.777 -1.288 -0.585 c -0.517 0.194 -0.779 0.771 -0.585 1.288 c 0.507 1.351 1.654 2.27 2.966 2.567 v 0.858 c 0 0.552 0.448 1 1 1 s 1 -0.448 1 -1 v -0.912 c 0.117 -0.032 0.235 -0.053 0.35 -0.096 c 2.131 -0.799 3.215 -3.184 2.417 -5.316 C 16.94 28.484 15.955 27.57 14.759 27.222 z" style="stroke: none; stroke-width: 1; stroke-dasharray: none; stroke-linecap: butt; stroke-linejoin: miter; stroke-miterlimit: 10; fill: rgb(0,0,0); fill-rule: nonzero; opacity: 1;" transform=" matrix(1 0 0 1 0 0) " stroke-linecap="round" />
	<path d="M 34.064 21.695 h -9.617 c -0.552 0 -1 -0.448 -1 -1 s 0.448 -1 1 -1 h 9.617 c 0.552 0 1 0.448 1 1 S 34.616 21.695 34.064 21.695 z" style="stroke: none; stroke-width: 1; stroke-dasharray: none; stroke-linecap: butt; stroke-linejoin: miter; stroke-miterlimit: 10; fill: rgb(0,0,0); fill-rule: nonzero; opacity: 1;" transform=" matrix(1 0 0 1 0 0) " stroke-linecap="round" />
	<path d="M 34.064 31.158 h -9.617 c -0.552 0 -1 -0.448 -1 -1 s 0.448 -1 1 -1 h 9.617 c 0.552 0 1 0.448 1 1 S 34.616 31.158 34.064 31.158 z" style="stroke: none; stroke-width: 1; stroke-dasharray: none; stroke-linecap: butt; stroke-linejoin: miter; stroke-miterlimit: 10; fill: rgb(0,0,0); fill-rule: nonzero; opacity: 1;" transform=" matrix(1 0 0 1 0 0) " stroke-linecap="round" />
	<path d="M 34.064 40.62 h -9.617 c -0.552 0 -1 -0.448 -1 -1 s 0.448 -1 1 -1 h 9.617 c 0.552 0 1 0.448 1 1 S 34.616 40.62 34.064 40.62 z" style="stroke: none; stroke-width: 1; stroke-dasharray: none; stroke-linecap: butt; stroke-linejoin: miter; stroke-miterlimit: 10; fill: rgb(0,0,0); fill-rule: nonzero; opacity: 1;" transform=" matrix(1 0 0 1 0 0) " stroke-linecap="round" />
	<path d="M 34.064 50.082 H 11.199 c -0.552 0 -1 -0.447 -1 -1 s 0.448 -1 1 -1 h 22.865 c 0.552 0 1 0.447 1 1 S 34.616 50.082 34.064 50.082 z" style="stroke: none; stroke-width: 1; stroke-dasharray: none; stroke-linecap: butt; stroke-linejoin: miter; stroke-miterlimit: 10; fill: rgb(0,0,0); fill-rule: nonzero; opacity: 1;" transform=" matrix(1 0 0 1 0 0) " stroke-linecap="round" />
	<path d="M 34.064 59.545 H 11.199 c -0.552 0 -1 -0.447 -1 -1 s 0.448 -1 1 -1 h 22.865 c 0.552 0 1 0.447 1 1 S 34.616 59.545 34.064 59.545 z" style="stroke: none; stroke-width: 1; stroke-dasharray: none; stroke-linecap: butt; stroke-linejoin: miter; stroke-miterlimit: 10; fill: rgb(0,0,0); fill-rule: nonzero; opacity: 1;" transform=" matrix(1 0 0 1 0 0) " stroke-linecap="round" />
	<path d="M 34.064 69.007 H 11.199 c -0.552 0 -1 -0.447 -1 -1 s 0.448 -1 1 -1 h 22.865 c 0.552 0 1 0.447 1 1 S 34.616 69.007 34.064 69.007 z" style="stroke: none; stroke-width: 1; stroke-dasharray: none; stroke-linecap: butt; stroke-linejoin: miter; stroke-miterlimit: 10; fill: rgb(0,0,0); fill-rule: nonzero; opacity: 1;" transform=" matrix(1 0 0 1 0 0) " stroke-linecap="round" />
</g>
</svg>