<svg xmlns="http://www.w3.org/2000/svg" xmlns:xlink="http://www.w3.org/1999/xlink" version="1.1" width="256" height="256" viewBox="0 0 256 256" xml:space="preserve">

<defs>
</defs>
<g style="stroke: none; stroke-width: 0; stroke-dasharray: none; stroke-linecap: butt; stroke-linejoin: miter; stroke-miterlimit: 10; fill: none; fill-rule: nonzero; opacity: 1;" transform="translate(1.4065934065934016 1.4065934065934016) scale(2.81 2.81)" >
	<path d="M 70.717 79.174 H 69.38 c 0.243 -2.295 0.588 -4.344 0.93 -6.318 c 0.719 -4.149 1.339 -7.733 0.698 -12.201 c -0.44 -3.064 -2.497 -5.675 -5.324 -6.794 l -2.272 -1.027 c -0.503 -0.228 -1.096 -0.003 -1.323 0.499 c -0.228 0.503 -0.004 1.096 0.499 1.323 l 2.316 1.046 c 2.205 0.874 3.786 2.881 4.124 5.238 c 0.597 4.153 0.001 7.593 -0.688 11.575 c -0.358 2.068 -0.719 4.216 -0.969 6.659 H 51.654 c 0.659 -3.04 2.122 -5.748 4.198 -7.712 c 0.198 -0.188 0.312 -0.449 0.313 -0.723 s -0.109 -0.535 -0.307 -0.725 l -4.828 -4.644 c -0.396 -0.347 -0.851 -0.607 -1.351 -0.775 c -0.041 -0.014 -0.084 -0.024 -0.127 -0.033 L 44.77 63.63 c -1.423 -0.509 -2.235 -1.987 -1.894 -3.466 l 0.148 -0.643 c 0.348 -1.51 1.818 -2.502 3.415 -2.263 l 4.62 0.402 c 0.296 0.046 0.582 0.16 0.823 0.328 l 8.938 6.297 c 0.453 0.316 1.076 0.21 1.394 -0.241 c 0.318 -0.452 0.21 -1.075 -0.241 -1.394 l -8.942 -6.301 c -0.495 -0.344 -1.07 -0.574 -1.73 -0.674 l -4.621 -0.402 c -2.559 -0.399 -5.021 1.273 -5.603 3.798 l -0.148 0.643 c -0.578 2.507 0.826 5.014 3.266 5.831 c 0.041 0.014 0.083 0.025 0.126 0.033 l 4.779 0.933 c 0.227 0.083 0.431 0.204 0.58 0.333 l 4.064 3.91 c -2.069 2.253 -3.5 5.187 -4.123 8.419 h -1.634 c -0.553 0 -1 0.447 -1 1 V 89 c 0 0.553 0.447 1 1 1 h 22.732 c 0.553 0 1 -0.447 1 -1 v -8.826 C 71.717 79.621 71.27 79.174 70.717 79.174 z M 69.717 88 H 48.984 v -6.826 h 20.732 V 88 z" style="stroke: none; stroke-width: 1; stroke-dasharray: none; stroke-linecap: butt; stroke-linejoin: miter; stroke-miterlimit: 10; fill: rgb(0,0,0); fill-rule: nonzero; opacity: 1;" transform=" matrix(1 0 0 1 0 0) " stroke-linecap="round" />
	<path d="M 38.885 21.197 l -1.594 -0.582 c -0.63 -0.185 -1.124 -0.642 -1.353 -1.253 c -0.4 -1.066 0.143 -2.26 1.209 -2.66 c 0.518 -0.194 1.078 -0.174 1.581 0.053 c 0.502 0.229 0.886 0.639 1.079 1.156 c 0.194 0.517 0.771 0.777 1.288 0.585 c 0.517 -0.194 0.779 -0.771 0.585 -1.288 c -0.381 -1.017 -1.136 -1.825 -2.125 -2.274 c -0.254 -0.115 -0.515 -0.201 -0.781 -0.262 v -0.812 c 0 -0.552 -0.448 -1 -1 -1 s -1 0.448 -1 1 v 0.881 c -0.11 0.031 -0.222 0.048 -0.33 0.088 c -2.099 0.788 -3.167 3.136 -2.379 5.235 c 0.452 1.205 1.422 2.105 2.599 2.449 l 1.594 0.582 c 0.63 0.185 1.123 0.642 1.352 1.252 c 0.4 1.067 -0.143 2.26 -1.209 2.66 c -0.518 0.194 -1.079 0.174 -1.581 -0.053 c -0.502 -0.229 -0.886 -0.639 -1.079 -1.155 c -0.194 -0.517 -0.77 -0.776 -1.288 -0.585 c -0.517 0.194 -0.779 0.771 -0.585 1.288 c 0.381 1.017 1.136 1.824 2.125 2.274 c 0.254 0.115 0.516 0.199 0.781 0.26 v 0.815 c 0 0.552 0.448 1 1 1 s 1 -0.448 1 -1 v -0.878 c 0.11 -0.031 0.221 -0.051 0.33 -0.091 c 2.099 -0.787 3.167 -3.135 2.379 -5.235 C 41.032 22.44 40.062 21.54 38.885 21.197 z" style="stroke: none; stroke-width: 1; stroke-dasharray: none; stroke-linecap: butt; stroke-linejoin: miter; stroke-miterlimit: 10; fill: rgb(0,0,0); fill-rule: nonzero; opacity: 1;" transform=" matrix(1 0 0 1 0 0) " stroke-linecap="round" />
	<path d="M 49.363 38.662 c 0.101 -0.244 0.101 -0.52 0 -0.764 c -0.051 -0.123 -0.124 -0.233 -0.217 -0.326 l -4.226 -4.227 c -0.391 -0.391 -1.023 -0.391 -1.414 0 c -0.391 0.39 -0.391 1.023 0 1.414 l 2.52 2.521 H 27.11 c -0.552 0 -1 0.448 -1 1 s 0.448 1 1 1 h 18.917 l -2.52 2.52 c -0.391 0.391 -0.391 1.023 0 1.414 c 0.195 0.195 0.451 0.293 0.707 0.293 s 0.512 -0.098 0.707 -0.293 l 4.226 -4.226 C 49.239 38.896 49.313 38.785 49.363 38.662 z" style="stroke: none; stroke-width: 1; stroke-dasharray: none; stroke-linecap: butt; stroke-linejoin: miter; stroke-miterlimit: 10; fill: rgb(0,0,0); fill-rule: nonzero; opacity: 1;" transform=" matrix(1 0 0 1 0 0) " stroke-linecap="round" />
	<path d="M 48.44 47.995 H 29.524 l 2.52 -2.52 c 0.391 -0.391 0.391 -1.023 0 -1.414 s -1.023 -0.391 -1.414 0 l -4.226 4.226 c -0.092 0.092 -0.165 0.201 -0.216 0.323 c -0.05 0.121 -0.078 0.251 -0.078 0.385 s 0.027 0.264 0.078 0.385 c 0.051 0.122 0.124 0.231 0.216 0.323 l 4.226 4.227 c 0.195 0.195 0.451 0.293 0.707 0.293 s 0.512 -0.098 0.707 -0.293 c 0.391 -0.391 0.391 -1.023 0 -1.414 l -2.52 -2.521 H 48.44 c 0.553 0 1 -0.447 1 -1 S 48.993 47.995 48.44 47.995 z" style="stroke: none; stroke-width: 1; stroke-dasharray: none; stroke-linecap: butt; stroke-linejoin: miter; stroke-miterlimit: 10; fill: rgb(0,0,0); fill-rule: nonzero; opacity: 1;" transform=" matrix(1 0 0 1 0 0) " stroke-linecap="round" />
	<path d="M 51.709 0 H 23.842 c -3.065 0 -5.559 2.494 -5.559 5.559 V 68.62 c 0 3.065 2.494 5.559 5.559 5.559 h 19.976 c 0.552 0 1 -0.447 1 -1 s -0.448 -1 -1 -1 H 23.842 c -1.962 0 -3.559 -1.597 -3.559 -3.559 V 5.559 C 20.283 3.596 21.879 2 23.842 2 h 3.401 c 0.491 3.594 3.573 6.375 7.299 6.375 h 6.467 c 3.726 0 6.808 -2.781 7.299 -6.375 h 3.401 c 1.962 0 3.559 1.596 3.559 3.559 v 46.918 c 0 0.553 0.447 1 1 1 s 1 -0.447 1 -1 V 5.559 C 57.268 2.494 54.774 0 51.709 0 z M 41.009 6.375 h -6.467 c -2.621 0 -4.803 -1.889 -5.274 -4.375 h 17.015 C 45.812 4.487 43.63 6.375 41.009 6.375 z" style="stroke: none; stroke-width: 1; stroke-dasharray: none; stroke-linecap: butt; stroke-linejoin: miter; stroke-miterlimit: 10; fill: rgb(0,0,0); fill-rule: nonzero; opacity: 1;" transform=" matrix(1 0 0 1 0 0) " stroke-linecap="round" />
</g>
</svg>