<svg xmlns="http://www.w3.org/2000/svg" xmlns:xlink="http://www.w3.org/1999/xlink" version="1.1" width="256" height="256" viewBox="0 0 256 256" xml:space="preserve">

<defs>
</defs>
<g style="stroke: none; stroke-width: 0; stroke-dasharray: none; stroke-linecap: butt; stroke-linejoin: miter; stroke-miterlimit: 10; fill: none; fill-rule: nonzero; opacity: 1;" transform="translate(1.4065934065934016 1.4065934065934016) scale(2.81 2.81)" >
	<path d="M 81.64 76.016 H 42.463 c -0.552 0 -1 -0.447 -1 -1 s 0.448 -1 1 -1 H 81.64 c 3.507 0 6.36 -2.854 6.36 -6.36 V 16.61 c 0 -3.507 -2.854 -6.36 -6.36 -6.36 H 8.36 C 4.853 10.25 2 13.104 2 16.61 v 25.834 c 0 0.552 -0.448 1 -1 1 s -1 -0.448 -1 -1 V 16.61 C 0 12 3.75 8.25 8.36 8.25 h 73.28 C 86.25 8.25 90 12 90 16.61 v 51.045 C 90 72.266 86.25 76.016 81.64 76.016 z" style="stroke: none; stroke-width: 1; stroke-dasharray: none; stroke-linecap: butt; stroke-linejoin: miter; stroke-miterlimit: 10; fill: rgb(0,0,0); fill-rule: nonzero; opacity: 1;" transform=" matrix(1 0 0 1 0 0) " stroke-linecap="round" />
	<path d="M 89 51.188 H 75.398 c -4.993 0 -9.056 -4.063 -9.056 -9.056 s 4.063 -9.056 9.056 -9.056 H 89 c 0.553 0 1 0.448 1 1 v 16.111 C 90 50.741 89.553 51.188 89 51.188 z M 75.398 35.077 c -3.891 0 -7.056 3.165 -7.056 7.056 s 3.165 7.056 7.056 7.056 H 88 V 35.077 H 75.398 z" style="stroke: none; stroke-width: 1; stroke-dasharray: none; stroke-linecap: butt; stroke-linejoin: miter; stroke-miterlimit: 10; fill: rgb(0,0,0); fill-rule: nonzero; opacity: 1;" transform=" matrix(1 0 0 1 0 0) " stroke-linecap="round" />
	<path d="M 18.934 81.75 C 8.494 81.75 0 73.256 0 62.815 c 0 -10.439 8.494 -18.933 18.934 -18.933 s 18.934 8.494 18.934 18.933 C 37.867 73.256 29.374 81.75 18.934 81.75 z M 18.934 45.882 C 9.596 45.882 2 53.479 2 62.815 C 2 72.153 9.596 79.75 18.934 79.75 s 16.934 -7.597 16.934 -16.935 C 35.867 53.479 28.271 45.882 18.934 45.882 z" style="stroke: none; stroke-width: 1; stroke-dasharray: none; stroke-linecap: butt; stroke-linejoin: miter; stroke-miterlimit: 10; fill: rgb(0,0,0); fill-rule: nonzero; opacity: 1;" transform=" matrix(1 0 0 1 0 0) " stroke-linecap="round" />
	<path d="M 77.301 43.133 h -3.576 c -0.553 0 -1 -0.448 -1 -1 s 0.447 -1 1 -1 h 3.576 c 0.553 0 1 0.448 1 1 S 77.854 43.133 77.301 43.133 z" style="stroke: none; stroke-width: 1; stroke-dasharray: none; stroke-linecap: butt; stroke-linejoin: miter; stroke-miterlimit: 10; fill: rgb(0,0,0); fill-rule: nonzero; opacity: 1;" transform=" matrix(1 0 0 1 0 0) " stroke-linecap="round" />
	<path d="M 20.189 70.727 h -4.51 c -0.552 0 -1 -0.447 -1 -1 s 0.448 -1 1 -1 h 4.51 c 0.772 0 1.4 -0.628 1.4 -1.4 v -2.109 c 0 -0.772 -0.628 -1.401 -1.4 -1.401 h -2.511 c -1.875 0 -3.401 -1.525 -3.401 -3.4 v -2.109 c 0 -1.875 1.525 -3.4 3.401 -3.4 h 4.51 c 0.552 0 1 0.447 1 1 s -0.448 1 -1 1 h -4.51 c -0.772 0 -1.401 0.628 -1.401 1.4 v 2.109 c 0 0.772 0.628 1.4 1.401 1.4 h 2.511 c 1.875 0 3.4 1.525 3.4 3.401 v 2.109 C 23.59 69.201 22.064 70.727 20.189 70.727 z" style="stroke: none; stroke-width: 1; stroke-dasharray: none; stroke-linecap: butt; stroke-linejoin: miter; stroke-miterlimit: 10; fill: rgb(0,0,0); fill-rule: nonzero; opacity: 1;" transform=" matrix(1 0 0 1 0 0) " stroke-linecap="round" />
	<path d="M 18.934 56.905 c -0.552 0 -1 -0.447 -1 -1 v -2.977 c 0 -0.553 0.448 -1 1 -1 s 1 0.447 1 1 v 2.977 C 19.934 56.458 19.486 56.905 18.934 56.905 z" style="stroke: none; stroke-width: 1; stroke-dasharray: none; stroke-linecap: butt; stroke-linejoin: miter; stroke-miterlimit: 10; fill: rgb(0,0,0); fill-rule: nonzero; opacity: 1;" transform=" matrix(1 0 0 1 0 0) " stroke-linecap="round" />
	<path d="M 18.934 73.703 c -0.552 0 -1 -0.447 -1 -1 v -2.977 c 0 -0.553 0.448 -1 1 -1 s 1 0.447 1 1 v 2.977 C 19.934 73.256 19.486 73.703 18.934 73.703 z" style="stroke: none; stroke-width: 1; stroke-dasharray: none; stroke-linecap: butt; stroke-linejoin: miter; stroke-miterlimit: 10; fill: rgb(0,0,0); fill-rule: nonzero; opacity: 1;" transform=" matrix(1 0 0 1 0 0) " stroke-linecap="round" />
	<path d="M 89 20.048 H 9.706 c -0.552 0 -1 -0.448 -1 -1 s 0.448 -1 1 -1 H 89 c 0.553 0 1 0.448 1 1 S 89.553 20.048 89 20.048 z" style="stroke: none; stroke-width: 1; stroke-dasharray: none; stroke-linecap: butt; stroke-linejoin: miter; stroke-miterlimit: 10; fill: rgb(0,0,0); fill-rule: nonzero; opacity: 1;" transform=" matrix(1 0 0 1 0 0) " stroke-linecap="round" />
	<path d="M 89 66.218 H 45.933 c -0.552 0 -1 -0.447 -1 -1 s 0.448 -1 1 -1 H 89 c 0.553 0 1 0.447 1 1 S 89.553 66.218 89 66.218 z" style="stroke: none; stroke-width: 1; stroke-dasharray: none; stroke-linecap: butt; stroke-linejoin: miter; stroke-miterlimit: 10; fill: rgb(0,0,0); fill-rule: nonzero; opacity: 1;" transform=" matrix(1 0 0 1 0 0) " stroke-linecap="round" />
</g>
</svg>