<?xml version="1.0" encoding="UTF-8"?>
<svg width="40px" height="40px" viewBox="0 -7 40 40" version="1.1" xmlns="http://www.w3.org/2000/svg" xmlns:xlink="http://www.w3.org/1999/xlink">
    
    <title>withdrawal</title>
    <desc>Created with Sketch.</desc>
    <g id="icons" stroke="none" stroke-width="1" fill="none" fill-rule="evenodd">
        <g id="ui-gambling-website-lined-icnos-casinoshunter" transform="translate(-860.000000, -547.000000)" fill="#252528" fill-rule="nonzero">
            <g id="square-filled" transform="translate(50.000000, 120.000000)">
                <path d="M839.440202,427 C840.918327,427 842.116584,428.2042 842.116584,429.689655 L842.116,430.538 L848.215774,430.539036 C849.151893,430.539036 849.91965,431.263563 849.994085,432.185078 L850,432.33214 L850,436.191856 C850,437.182159 849.201162,437.984959 848.215745,437.984959 L848.215745,437.984959 L842.116,437.984 L842.118297,442.217325 C844.355457,446.366261 842.377052,452.694044 836.182253,452.989315 L835.900763,452.9985 C828.961649,453.136281 826.067302,443.743322 831.748655,439.965974 C832.339522,439.603285 832.054367,439.761985 832.441164,439.557934 C832.818537,439.358856 832.358338,439.592982 833.219834,439.169233 C833.511128,439.052843 833.811732,438.954787 834.120208,438.876549 L829.334735,435.767848 C829.122648,435.630063 828.942082,435.448602 828.804977,435.235463 C828.27,434.403805 828.507181,433.293778 829.334735,432.756148 L829.334735,432.756148 L835.434,428.793 L812.676382,428.793103 C812.183674,428.793103 811.784255,429.194503 811.784255,429.689655 L811.784255,445.827586 C811.784255,446.322738 812.183674,446.724138 812.676382,446.724138 L828.789938,446.724514 C828.867707,447.350994 829.025872,447.952379 829.253732,448.517913 L812.676382,448.517241 C811.198257,448.517241 810,447.313042 810,445.827586 L810,429.689655 C810,428.2042 811.198257,427 812.676382,427 L839.440202,427 Z M833.66583,449.011445 L832.432601,450.237808 C833.193196,450.830391 834.110248,451.232688 835.110898,451.372876 L835.110898,451.372876 L835.110898,449.63261 C834.582461,449.524353 834.093244,449.30894 833.66583,449.011445 L833.66583,449.011445 Z M838.135221,449.011497 C837.707808,449.30894 837.218591,449.524353 836.690206,449.63261 L836.690206,449.63261 L836.690206,451.372876 C837.690804,451.232688 838.607908,450.830391 839.368451,450.237808 L839.368451,450.237808 Z M841.49678,446.46402 L839.754592,446.46402 C839.66973,446.973002 839.485372,447.448744 839.22168,447.87088 L839.22168,447.87088 L840.464123,449.106352 C841.018039,448.346255 841.384754,447.44309 841.49678,446.46402 L841.49678,446.46402 Z M832.046512,446.46402 L830.304324,446.46402 C830.41635,447.44309 830.783066,448.346255 831.336982,449.1063 L831.336982,449.1063 L832.579424,447.870828 C832.315679,447.448691 832.131321,446.97295 832.046512,446.46402 L832.046512,446.46402 Z M835.900657,443.511838 C832.841379,443.565914 832.840905,448.087393 835.900552,448.14194 C838.959726,448.087812 838.960199,443.566385 835.900657,443.511838 Z M831.4648,442.378392 C830.898566,443.09703 830.505107,443.95617 830.346281,444.893571 L830.346281,444.893571 L832.10779,444.893571 C832.224553,444.424687 832.427179,443.989464 832.69803,443.604704 L832.69803,443.604704 Z M840.336304,442.378392 L839.103074,443.604704 C839.373926,443.989464 839.576604,444.424687 839.693315,444.893571 L839.693315,444.893571 L841.45477,444.893571 C841.295997,443.95617 840.902539,443.09703 840.336304,442.378392 L840.336304,442.378392 Z M819.481441,442.241379 C819.938504,442.241379 820.309027,442.611902 820.309027,443.068966 C820.309027,443.526029 819.938504,443.896552 819.481441,443.896552 L814.396096,443.896552 C813.939032,443.896552 813.568509,443.526029 813.568509,443.068966 C813.568509,442.611902 813.939032,442.241379 814.396096,442.241379 L819.481441,442.241379 Z M827.114086,442.241379 C827.571149,442.241379 827.941672,442.611902 827.941672,443.068966 C827.941672,443.526029 827.571149,443.896552 827.114086,443.896552 L822.02874,443.896552 C821.571677,443.896552 821.201154,443.526029 821.201154,443.068966 C821.201154,442.611902 821.571677,442.241379 822.02874,442.241379 L827.114086,442.241379 Z M835.110898,440.280901 C834.183686,440.41083 833.328279,440.766013 832.60264,441.288867 L832.60264,441.288867 L833.845082,442.52434 C834.228222,442.287673 834.655004,442.114557 835.110898,442.021168 L835.110898,442.021168 Z M836.690206,440.280953 L836.690206,442.02122 C837.1461,442.114609 837.572882,442.287725 837.956022,442.524392 L837.956022,442.524392 L839.198465,441.288972 C838.472825,440.766013 837.617419,440.410882 836.690206,440.280953 L836.690206,440.280953 Z M840.332,437.984 L838.253617,437.984585 L838.253416,438.268298 C838.253416,438.513964 838.203014,438.756223 838.106526,438.980139 C838.959136,439.229905 839.701853,439.616403 840.332941,440.102922 L840.332,437.984 Z M836.469162,430.256336 L830.303396,434.261998 L836.469162,438.26766 L836.470631,436.191415 L848.215762,436.191856 L848.215762,432.33214 L836.470632,432.331765 L836.469162,430.256336 Z M818.029146,430.586207 C819.014563,430.586207 819.813401,431.389007 819.813401,432.37931 C819.813401,433.369614 819.014563,434.172414 818.029146,434.172414 C817.495948,434.172414 817.017376,433.937372 816.690423,433.564763 C816.364534,433.937372 815.885962,434.172414 815.352764,434.172414 C814.367347,434.172414 813.568509,433.369614 813.568509,432.37931 C813.568509,431.389007 814.367347,430.586207 815.352764,430.586207 C815.885962,430.586207 816.364534,430.821249 816.691487,431.193857 C817.017376,430.821249 817.495948,430.586207 818.029146,430.586207 Z M839.440202,428.793103 L837.500248,428.792768 C837.955996,429.117625 838.253416,429.652075 838.253416,430.256336 L838.253416,430.256336 L838.253617,430.538718 L840.332,430.538 L840.332329,429.689655 C840.332329,429.194503 839.93291,428.793103 839.440202,428.793103 Z" id="withdrawal"></path>
            </g>
        </g>
    </g>
</svg>