<svg width="2000" height="2000" viewBox="0 0 2000 2000" fill="none" xmlns="http://www.w3.org/2000/svg">
<rect width="2000" height="2000" fill="white"/>
<path d="M690.531 1567.52L679.763 1510.09H564.005L561.313 1572.91L690.531 1567.52Z" fill="#FF9494"/>
<path d="M562.191 1540.6L533.496 1640.5V1677H829.5V1641.5C821.848 1617.81 788.539 1568.11 738.947 1568.11C683.854 1568.11 693.182 1553.23 685.148 1543.29L587.442 1541.2L562.191 1540.6Z" fill="#6373FF"/>
<path d="M798.631 1640.15H533.496V1677H829.5L829.5 1641.5L798.631 1640.15Z" fill="#2C2B38"/>
<path d="M415.998 1540.5L411.124 1507.31L295.383 1505.33L293 1535.5L415.998 1540.5Z" fill="#FF9494"/>
<path d="M293 1535.5L262.499 1635L261.999 1671.5L556.998 1676.5L558.499 1640.5C551.255 1616.68 518.949 1567.09 469.364 1566.24C414.279 1565.29 423.861 1550.57 415.999 1540.5L293 1535.5Z" fill="#6373FF"/>
<path d="M527.742 1639.39L262.5 1635L262 1671.5L557.227 1676.65L558.502 1640.5L527.742 1639.39Z" fill="#2C2B38"/>
<path d="M553.892 1524.62H729.227L700.565 1167.01C700.35 1164.33 699.753 1161.69 698.791 1159.18L593.484 883.702L423.803 890.761L560.062 1219.6C561.587 1223.28 562.317 1227.24 562.204 1231.23L553.892 1524.62Z" fill="#2C2B38"/>
<path d="M465.477 1530.59L276.001 1522.82L393.417 1174.79C393.83 1173.57 393.643 1172.19 392.946 1171.1C319.383 1056.25 333.268 983.578 345 924.5C345.118 923.908 345.383 923.589 345.5 923C347.398 913.447 348.871 903.973 350.236 895L502.948 898.535L574.868 1186.21C574.995 1186.72 574.978 1187.26 574.818 1187.76L465.477 1530.59Z" fill="#2C2B38"/>
<path d="M846.031 775.613C825.321 748.274 770.373 759.407 747.569 768.127C718.493 779.247 733.791 846.992 782.245 834.089C830.7 821.185 823.044 775.832 837.066 794.28C851.087 812.729 869.964 807.208 846.031 775.613Z" fill="#FF9494"/>
<path d="M772.015 867.607L751.244 750.434L561.559 780.013C561.559 780.013 515.162 574.987 477.28 575.959C379.817 578.459 414.843 731.159 424.891 753.029C434.939 774.9 464.083 916.517 487.727 925.097C506.642 931.96 772.015 867.607 772.015 867.607Z" fill="#6373FF"/>
<path d="M511.027 449.509C512.962 450.039 524.822 444.097 535.033 440.238C537.15 469.812 540.31 490.68 543.932 495.185C556.006 510.199 571.403 558.086 537.876 563.414C527.661 565.723 516.337 566.151 506.666 565.653L501.903 603.047C489.793 604.722 437.852 611.739 410.83 593.933C425.098 582.863 428.487 567.366 425.913 554.181C425.913 554.181 401.091 480.114 421.509 476.97C441.927 473.827 421.129 443.828 424.474 442.247C427.819 440.666 479.304 487.836 480.901 477.456C482.497 467.075 494.654 454.593 493.944 460.225C493.234 465.856 502.732 468.931 504.667 469.461C506.603 469.991 514.176 465.351 517.702 460.076C521.228 454.8 509.092 448.978 511.027 449.509Z" fill="#FF9494"/>
<path d="M535.718 431.975C536.027 436.944 537.816 476.39 485.648 474.164C493.625 500.168 457.976 490.841 448.948 492.995C448.304 483.281 435.828 469.704 424.824 482.895C413.82 496.087 430.088 510.162 437.857 518.5C424.887 527.889 426.228 561.542 427.387 565.417C427.387 565.417 393.045 551.527 395.006 542.54C396.967 533.554 388.738 487.402 386.036 467.019C383.333 446.637 406.318 407.63 427.738 397.347C449.159 387.063 461.19 405.211 491.401 399.379C513.253 395.161 516.429 417.224 517.163 425.281C522.294 426.339 534.698 415.586 535.718 431.975Z" fill="#2C2B38"/>
<path d="M506.908 591.25C563.719 631.203 588.804 865.108 606.551 935.278L345 924.5C345 924.5 344.416 849.979 353.43 734.53C366.279 569.956 451.475 552.265 506.908 591.25Z" fill="#6373FF"/>
<path d="M780.437 861.39C766.136 830.216 710.082 829.189 685.93 832.766C655.137 837.327 655.406 906.778 705.505 904.67C755.604 902.563 757.948 856.627 767.643 877.674C777.338 898.72 796.963 897.417 780.437 861.39Z" fill="#FF9494"/>
<path d="M688.257 935.174L693.346 816.283L501.756 804.095C501.756 804.095 500.845 593.887 463.651 586.635C367.959 567.975 369.096 724.637 374.171 748.164C379.246 771.692 377.04 916.259 398.265 929.754C415.246 940.55 688.257 935.174 688.257 935.174Z" fill="#6373FF"/>
<rect x="1130.47" y="339.968" width="636.301" height="1306.54" rx="56.5601" fill="#444256"/>
<rect x="1157.34" y="379.56" width="582.569" height="1210.39" rx="56.5601" fill="white"/>
<path d="M1378.26 1167.46C1372.7 1167.46 1367.91 1166.14 1363.88 1163.51C1359.85 1160.85 1356.75 1157.04 1354.57 1152.08C1352.39 1147.1 1351.31 1141.11 1351.33 1134.12C1351.35 1127.12 1352.44 1121.19 1354.6 1116.31C1356.78 1111.41 1359.87 1107.69 1363.88 1105.14C1367.91 1102.56 1372.7 1101.27 1378.26 1101.27C1383.82 1101.27 1388.62 1102.56 1392.65 1105.14C1396.69 1107.69 1399.81 1111.41 1401.99 1116.31C1404.16 1121.21 1405.24 1127.15 1405.22 1134.12C1405.22 1141.13 1404.13 1147.13 1401.95 1152.11C1399.78 1157.09 1396.67 1160.9 1392.65 1163.54C1388.64 1166.15 1383.85 1167.46 1378.26 1167.46ZM1378.26 1154.85C1381.58 1154.85 1384.27 1153.16 1386.33 1149.78C1388.38 1146.38 1389.4 1141.16 1389.38 1134.12C1389.38 1129.51 1388.91 1125.71 1387.98 1122.72C1387.04 1119.72 1385.74 1117.47 1384.08 1116C1382.42 1114.53 1380.48 1113.79 1378.26 1113.79C1374.96 1113.79 1372.3 1115.46 1370.26 1118.8C1368.23 1122.12 1367.2 1127.23 1367.18 1134.12C1367.16 1138.79 1367.61 1142.66 1368.52 1145.73C1369.45 1148.8 1370.76 1151.1 1372.44 1152.61C1374.12 1154.11 1376.06 1154.85 1378.26 1154.85ZM1420 1166.81C1417.75 1166.81 1415.83 1166.02 1414.24 1164.44C1412.66 1162.86 1411.88 1160.96 1411.9 1158.71C1411.88 1156.51 1412.66 1154.64 1414.24 1153.08C1415.83 1151.5 1417.75 1150.71 1420 1150.71C1422.11 1150.71 1423.98 1151.5 1425.6 1153.08C1427.24 1154.64 1428.07 1156.51 1428.09 1158.71C1428.07 1160.21 1427.67 1161.57 1426.91 1162.79C1426.16 1164.02 1425.17 1164.99 1423.95 1165.72C1422.75 1166.44 1421.43 1166.81 1420 1166.81ZM1461.65 1167.46C1456.09 1167.46 1451.29 1166.14 1447.27 1163.51C1443.24 1160.85 1440.14 1157.04 1437.96 1152.08C1435.78 1147.1 1434.7 1141.11 1434.72 1134.12C1434.74 1127.12 1435.83 1121.19 1437.99 1116.31C1440.17 1111.41 1443.26 1107.69 1447.27 1105.14C1451.29 1102.56 1456.09 1101.27 1461.65 1101.27C1467.21 1101.27 1472.01 1102.56 1476.03 1105.14C1480.08 1107.69 1483.19 1111.41 1485.37 1116.31C1487.55 1121.21 1488.63 1127.15 1488.61 1134.12C1488.61 1141.13 1487.52 1147.13 1485.34 1152.11C1483.16 1157.09 1480.06 1160.9 1476.03 1163.54C1472.03 1166.15 1467.23 1167.46 1461.65 1167.46ZM1461.65 1154.85C1464.97 1154.85 1467.66 1153.16 1469.71 1149.78C1471.77 1146.38 1472.79 1141.16 1472.76 1134.12C1472.76 1129.51 1472.3 1125.71 1471.36 1122.72C1470.43 1119.72 1469.13 1117.47 1467.47 1116C1465.81 1114.53 1463.87 1113.79 1461.65 1113.79C1458.35 1113.79 1455.68 1115.46 1453.65 1118.8C1451.62 1122.12 1450.59 1127.23 1450.57 1134.12C1450.55 1138.79 1450.99 1142.66 1451.91 1145.73C1452.84 1148.8 1454.15 1151.1 1455.83 1152.61C1457.51 1154.11 1459.45 1154.85 1461.65 1154.85ZM1497.44 1165.91V1154.82L1520.69 1134.46C1522.44 1132.88 1523.92 1131.44 1525.14 1130.13C1526.37 1128.81 1527.3 1127.48 1527.95 1126.15C1528.59 1124.8 1528.91 1123.34 1528.91 1121.76C1528.91 1120 1528.53 1118.49 1527.76 1117.25C1526.99 1115.98 1525.93 1115 1524.58 1114.32C1523.23 1113.63 1521.69 1113.29 1519.95 1113.29C1518.18 1113.29 1516.63 1113.66 1515.31 1114.38C1513.98 1115.09 1512.94 1116.11 1512.19 1117.46C1511.47 1118.81 1511.1 1120.45 1511.1 1122.38H1496.5C1496.5 1118.04 1497.48 1114.3 1499.43 1111.14C1501.38 1107.99 1504.12 1105.56 1507.65 1103.86C1511.2 1102.14 1515.32 1101.27 1520.01 1101.27C1524.84 1101.27 1529.05 1102.08 1532.62 1103.7C1536.19 1105.32 1538.95 1107.58 1540.9 1110.49C1542.87 1113.37 1543.85 1116.73 1543.85 1120.55C1543.85 1122.97 1543.37 1125.38 1542.39 1127.77C1541.42 1130.16 1539.66 1132.79 1537.13 1135.68C1534.62 1138.56 1531.05 1142.02 1526.42 1146.04L1518.79 1153.08V1153.48H1544.63V1165.91H1497.44ZM1270.43 1271.91V1208.15H1297.02C1301.79 1208.15 1305.78 1208.82 1309 1210.17C1312.24 1211.52 1314.67 1213.41 1316.29 1215.84C1317.93 1218.26 1318.75 1221.08 1318.75 1224.27C1318.75 1226.7 1318.24 1228.87 1317.22 1230.78C1316.2 1232.67 1314.8 1234.24 1313.02 1235.48C1311.23 1236.73 1309.17 1237.6 1306.82 1238.1V1238.72C1309.4 1238.84 1311.77 1239.54 1313.95 1240.8C1316.15 1242.07 1317.92 1243.83 1319.24 1246.1C1320.57 1248.34 1321.24 1250.99 1321.24 1254.07C1321.24 1257.49 1320.36 1260.55 1318.62 1263.25C1316.88 1265.93 1314.36 1268.04 1311.06 1269.6C1307.76 1271.14 1303.75 1271.91 1299.04 1271.91H1270.43ZM1285.84 1259.48H1295.37C1298.71 1259.48 1301.17 1258.85 1302.74 1257.58C1304.34 1256.32 1305.14 1254.55 1305.14 1252.29C1305.14 1250.65 1304.76 1249.24 1303.99 1248.06C1303.22 1246.85 1302.13 1245.93 1300.72 1245.29C1299.31 1244.62 1297.62 1244.29 1295.65 1244.29H1285.84V1259.48ZM1285.84 1234.36H1294.37C1296.05 1234.36 1297.54 1234.08 1298.85 1233.52C1300.16 1232.96 1301.18 1232.15 1301.9 1231.09C1302.65 1230.03 1303.02 1228.76 1303.02 1227.26C1303.02 1225.12 1302.27 1223.44 1300.75 1222.22C1299.24 1220.99 1297.19 1220.38 1294.62 1220.38H1285.84V1234.36ZM1344.06 1208.15V1271.91H1328.65V1208.15H1344.06ZM1351.64 1220.66V1208.15H1405.53V1220.66H1386.2V1271.91H1371.01V1220.66H1351.64ZM1468.02 1231.25H1452.46C1452.25 1229.65 1451.83 1228.21 1451.18 1226.92C1450.54 1225.63 1449.69 1224.53 1448.63 1223.62C1447.57 1222.71 1446.31 1222.01 1444.86 1221.53C1443.43 1221.04 1441.84 1220.79 1440.1 1220.79C1437.01 1220.79 1434.34 1221.54 1432.1 1223.06C1429.88 1224.57 1428.16 1226.76 1426.96 1229.63C1425.78 1232.49 1425.19 1235.96 1425.19 1240.03C1425.19 1244.26 1425.79 1247.81 1426.99 1250.67C1428.22 1253.52 1429.93 1255.66 1432.13 1257.12C1434.35 1258.55 1436.98 1259.27 1440.01 1259.27C1441.71 1259.27 1443.25 1259.05 1444.64 1258.61C1446.06 1258.18 1447.29 1257.54 1448.35 1256.71C1449.43 1255.86 1450.31 1254.83 1451 1253.63C1451.7 1252.41 1452.19 1251.03 1452.46 1249.49L1468.02 1249.58C1467.75 1252.41 1466.93 1255.19 1465.57 1257.93C1464.22 1260.67 1462.36 1263.17 1459.99 1265.43C1457.63 1267.67 1454.74 1269.46 1451.34 1270.78C1447.95 1272.11 1444.07 1272.78 1439.69 1272.78C1433.92 1272.78 1428.76 1271.51 1424.19 1268.98C1419.65 1266.43 1416.05 1262.71 1413.42 1257.83C1410.78 1252.96 1409.46 1247.02 1409.46 1240.03C1409.46 1233.01 1410.8 1227.06 1413.48 1222.19C1416.16 1217.31 1419.78 1213.61 1424.35 1211.07C1428.91 1208.54 1434.03 1207.27 1439.69 1207.27C1443.55 1207.27 1447.12 1207.81 1450.4 1208.89C1453.68 1209.95 1456.57 1211.51 1459.06 1213.56C1461.55 1215.6 1463.57 1218.1 1465.13 1221.07C1466.69 1224.03 1467.65 1227.43 1468.02 1231.25ZM1537.02 1240.03C1537.02 1247.04 1535.67 1252.99 1532.97 1257.86C1530.28 1262.74 1526.62 1266.45 1522.02 1268.98C1517.43 1271.51 1512.28 1272.78 1506.57 1272.78C1500.85 1272.78 1495.69 1271.5 1491.1 1268.95C1486.51 1266.39 1482.87 1262.69 1480.17 1257.83C1477.5 1252.96 1476.16 1247.02 1476.16 1240.03C1476.16 1233.01 1477.5 1227.06 1480.17 1222.19C1482.87 1217.31 1486.51 1213.61 1491.1 1211.07C1495.69 1208.54 1500.85 1207.27 1506.57 1207.27C1512.28 1207.27 1517.43 1208.54 1522.02 1211.07C1526.62 1213.61 1530.28 1217.31 1532.97 1222.19C1535.67 1227.06 1537.02 1233.01 1537.02 1240.03ZM1521.27 1240.03C1521.27 1235.88 1520.68 1232.37 1519.49 1229.5C1518.33 1226.64 1516.65 1224.47 1514.45 1223C1512.27 1221.52 1509.65 1220.79 1506.57 1220.79C1503.52 1220.79 1500.9 1221.52 1498.7 1223C1496.5 1224.47 1494.81 1226.64 1493.62 1229.5C1492.46 1232.37 1491.88 1235.88 1491.88 1240.03C1491.88 1244.18 1492.46 1247.68 1493.62 1250.55C1494.81 1253.41 1496.5 1255.58 1498.7 1257.06C1500.9 1258.53 1503.52 1259.27 1506.57 1259.27C1509.65 1259.27 1512.27 1258.53 1514.45 1257.06C1516.65 1255.58 1518.33 1253.41 1519.49 1250.55C1520.68 1247.68 1521.27 1244.18 1521.27 1240.03ZM1561.43 1208.15V1271.91H1546.02V1208.15H1561.43ZM1625.37 1208.15V1271.91H1612.29L1586.92 1235.11H1586.51V1271.91H1571.1V1208.15H1584.37L1609.46 1244.88H1609.99V1208.15H1625.37Z" fill="#444256"/>
<rect x="1341.16" y="417.738" width="213.514" height="25.452" rx="12.726" fill="#444256"/>
<circle cx="1449.33" cy="1507.23" r="40.2991" fill="#444256"/>
<rect x="1315.71" y="547.826" width="179.578" height="448.239" fill="#444256"/>
<path d="M1282.86 547.827H1326.87C1394.4 547.827 1454.94 577.721 1495.99 624.997V918.451C1454.94 965.727 1394.4 995.621 1326.87 995.621H1282.86V547.827Z" fill="#FFCB74"/>
<path d="M1282.86 547.838H1326.87C1394 547.838 1454.24 577.386 1495.27 624.186V919.284C1454.24 966.084 1394 995.632 1326.87 995.632H1282.86V547.838Z" fill="#DD6407"/>
<path d="M1079.57 771.735C1079.57 648.08 1179.81 547.838 1303.47 547.838C1385.36 547.838 1456.98 591.802 1496.02 657.415V886.055C1456.98 951.668 1385.36 995.632 1303.47 995.632C1179.81 995.632 1079.57 895.39 1079.57 771.735Z" fill="#FDB802"/>
<path d="M1199.09 567.38L1198.2 565.596C1213.76 557.847 1230.2 551.87 1247.06 547.834L1247.53 549.773C1230.81 553.773 1214.51 559.699 1199.09 567.38Z" fill="#FDB802"/>
<path d="M1173.24 582.439L1172.12 580.785C1176.41 577.899 1180.83 575.127 1185.29 572.544L1186.29 574.268C1181.88 576.829 1177.48 579.577 1173.24 582.439Z" fill="#FDB802"/>
<path d="M1437.42 651.584C1405.24 623.032 1362.89 605.682 1316.47 605.682C1215.75 605.682 1134.09 687.342 1134.09 788.06C1134.09 834.428 1151.4 876.755 1179.92 908.938C1142.21 875.527 1118.44 826.739 1118.44 772.389C1118.44 671.668 1200.08 590.009 1300.8 590.009C1355.19 590.009 1404.01 613.816 1437.42 651.584Z" fill="#DD6407"/>
<path opacity="0.1" d="M1398.58 624.956C1434.49 648.651 1462.21 685.066 1474.23 729.906C1500.3 827.195 1442.55 927.204 1345.27 953.272C1300.48 965.273 1255.11 959.506 1216.65 940.293C1258.68 968.071 1311.96 978.403 1364.46 964.336C1461.74 938.268 1519.49 838.275 1493.42 740.989C1479.35 688.452 1443.71 647.453 1398.58 624.956Z" fill="#DD6407"/>
<path d="M1308.64 901.971V655.163H1324.45V901.971H1308.64ZM1342.96 741.546C1342.45 735.118 1340.04 730.105 1335.73 726.506C1331.49 722.907 1325.03 721.107 1316.35 721.107C1310.82 721.107 1306.29 721.782 1302.76 723.132C1299.29 724.417 1296.72 726.185 1295.05 728.434C1293.37 730.684 1292.51 733.255 1292.44 736.147C1292.31 738.525 1292.73 740.678 1293.7 742.606C1294.72 744.47 1296.33 746.173 1298.52 747.716C1300.7 749.194 1303.5 750.544 1306.9 751.765C1310.31 752.986 1314.36 754.079 1319.05 755.043L1335.25 758.514C1346.17 760.828 1355.53 763.881 1363.3 767.673C1371.08 771.465 1377.44 775.932 1382.39 781.074C1387.34 786.151 1390.97 791.871 1393.29 798.234C1395.66 804.597 1396.89 811.539 1396.95 819.059C1396.89 832.042 1393.64 843.033 1387.21 852.031C1380.79 861.029 1371.59 867.874 1359.64 872.566C1347.75 877.258 1333.45 879.604 1316.74 879.604C1299.58 879.604 1284.6 877.065 1271.81 871.987C1259.08 866.91 1249.19 859.101 1242.12 848.56C1235.11 837.955 1231.58 824.393 1231.51 807.875H1282.42C1282.74 813.917 1284.25 818.995 1286.95 823.108C1289.65 827.221 1293.44 830.339 1298.32 832.46C1303.27 834.581 1309.15 835.641 1315.97 835.641C1321.69 835.641 1326.47 834.934 1330.33 833.52C1334.19 832.106 1337.11 830.146 1339.1 827.639C1341.1 825.133 1342.13 822.272 1342.19 819.059C1342.13 816.038 1341.13 813.403 1339.2 811.153C1337.34 808.839 1334.25 806.783 1329.95 804.983C1325.64 803.119 1319.82 801.384 1312.5 799.777L1292.83 795.535C1275.35 791.743 1261.56 785.412 1251.47 776.542C1241.44 767.608 1236.46 755.429 1236.52 740.003C1236.46 727.47 1239.8 716.512 1246.55 707.128C1253.36 697.68 1262.78 690.32 1274.8 685.05C1286.88 679.78 1300.73 677.144 1316.35 677.144C1332.29 677.144 1346.08 679.812 1357.71 685.146C1369.34 690.481 1378.31 698.001 1384.61 707.706C1390.97 717.347 1394.19 728.627 1394.25 741.546H1342.96Z" fill="#FAB002"/>
<path d="M1302.98 901.971V655.163H1318.79V901.971H1302.98ZM1337.3 741.546C1336.79 735.118 1334.38 730.105 1330.07 726.506C1325.83 722.907 1319.37 721.107 1310.7 721.107C1305.17 721.107 1300.64 721.782 1297.1 723.132C1293.63 724.417 1291.06 726.185 1289.39 728.434C1287.72 730.684 1286.85 733.255 1286.79 736.147C1286.66 738.525 1287.08 740.678 1288.04 742.606C1289.07 744.47 1290.67 746.173 1292.86 747.716C1295.05 749.194 1297.84 750.544 1301.25 751.765C1304.65 752.986 1308.7 754.079 1313.4 755.043L1329.59 758.514C1340.52 760.828 1349.87 763.881 1357.65 767.673C1365.42 771.465 1371.79 775.932 1376.74 781.074C1381.68 786.151 1385.32 791.871 1387.63 798.234C1390.01 804.597 1391.23 811.539 1391.29 819.059C1391.23 832.042 1387.98 843.033 1381.56 852.031C1375.13 861.029 1365.94 867.874 1353.98 872.566C1342.09 877.258 1327.79 879.604 1311.08 879.604C1293.92 879.604 1278.94 877.065 1266.15 871.987C1253.43 866.91 1243.53 859.101 1236.46 848.56C1229.45 837.955 1225.92 824.393 1225.86 807.875H1276.76C1277.08 813.917 1278.59 818.995 1281.29 823.108C1283.99 827.221 1287.78 830.339 1292.67 832.46C1297.62 834.581 1303.5 835.641 1310.31 835.641C1316.03 835.641 1320.82 834.934 1324.67 833.52C1328.53 832.106 1331.46 830.146 1333.45 827.639C1335.44 825.133 1336.47 822.272 1336.53 819.059C1336.47 816.038 1335.47 813.403 1333.54 811.153C1331.68 808.839 1328.6 806.783 1324.29 804.983C1319.98 803.119 1314.17 801.384 1306.84 799.777L1287.17 795.535C1269.69 791.743 1255.9 785.412 1245.81 776.542C1235.79 767.608 1230.8 755.429 1230.87 740.003C1230.8 727.47 1234.15 716.512 1240.9 707.128C1247.71 697.68 1257.12 690.32 1269.14 685.05C1281.23 679.78 1295.08 677.144 1310.7 677.144C1326.64 677.144 1340.42 679.812 1352.06 685.146C1363.69 690.481 1372.65 698.001 1378.95 707.706C1385.32 717.347 1388.53 728.627 1388.59 741.546H1337.3Z" fill="#FFC323"/>
</svg>
