<svg xmlns="http://www.w3.org/2000/svg" enable-background="new 0 0 1000 1000" viewBox="0 0 1000 1000"><g opacity=".3"><path fill="#ffb817" d="M498.01 935.27h-7.81v-98.95l38.31-38.31V203.78l-37.28-37.27V81.05h7.81v82.23l37.28 37.27v600.69l-38.31 38.31zm248.74-229.65h-7.81V575.58L643 479.64V282.68l-42.12-42.12v-69.27h7.81v66.04l42.12 42.12v196.96l95.94 95.94z"/><path fill="#ffb817" d="m745.6 647.01-5.52-5.52 63.55-63.55V442.67l-77.84-77.83V296.2h7.81v65.41l77.83 77.83v141.73z"/><path fill="#ffb817" d="M726.6 553.82h-7.81v-84.41l58.54-58.55 5.52 5.52-56.25 56.26zm83.69-18.49-5.52-5.52 47.32-47.32V422.5h7.81v63.22zM586.81 866.91h-7.8v-96.84l44.09-44.1v-464.8h7.81V729.2l-44.1 44.1z"/><path fill="#ffb817" d="M718.27 735.45h-7.8V642.8l-86.22-86.22 5.52-5.52 88.5 88.51zM453.72 909.51h-7.81v-49.95l-27.84-27.85V208.56l27.98-23.37v-78.38h7.81v82.03l-27.98 23.37v616.27l27.84 27.85z"/><path fill="#ffb817" d="M349.85 305.72h-7.8v-62.18L447.2 138.38l5.52 5.52-102.87 102.87zm-88.11 411.67h-7.8V502.94l57.29-57.3 5.52 5.52-55.01 55.01z"/><path fill="#ffb817" d="M310.08 242.78h7.81v530.76h-7.81zM111.74 571.3l-5.52-5.52 89.37-89.37V357.27h7.81v122.37zm103.75-233.92h7.81v341.57h-7.81z"/><path fill="#ffb817" d="M143.87 581.2h88.48v7.81h-88.48z" transform="rotate(-45.001 188.106 585.11)"/><path fill="#ffb817" d="m289.4 472.99-38.91-38.92V302.38h7.81v128.46l36.62 36.63zm543.42 30.39h7.81V613.1h-7.81zm36.64 80.88h-7.8v-57.73l24.77-24.77v-44.93h7.8v48.16l-24.77 24.77zM147.01 405.85h7.81V526.6h-7.81zm-27 27h7.81v120.97h-7.81zm55.23 65.54h7.81v95.69h-7.81zm528.5 32.57h-7.81V369.57l-23.56-23.56V242.78h7.81v100l23.56 23.56zm-150.29-407.1h7.81v768.61h-7.81zm-62.1 716.84-36.51-36.51V222.07l16.14-20.32V85.63h7.81v118.84l-16.14 20.33v576.16l34.21 34.22z"/></g><path fill="#fff" d="M799.73 593.76c-2.7 0-5.18-.91-7.15-2.43a11.624 11.624 0 0 1-7.15 2.43h-5.64c-6.41 0-11.63-5.14-11.63-11.47v-2.05h-11.6c-3.58 0-6.91-1.61-9.13-4.42a11.597 11.597 0 0 1-2.2-9.9l1.79-7.63c1.28-5.32 5.94-8.98 11.33-8.98h.69V504.4h-4.95c-6.41 0-11.63-5.22-11.63-11.63v-5.83c0-6.41 5.22-11.63 11.63-11.63h13.43v-6.49c0-6.33 5.23-11.47 11.66-11.47h5.58c2.8 0 5.37.98 7.37 2.61 2.01-1.63 4.58-2.61 7.37-2.61h5.61c6.43 0 11.66 5.14 11.66 11.47v6.4c7.88.49 15.23 3.81 20.88 9.46 6.13 6.09 9.53 14.24 9.53 22.93 0 4.82-1.38 9.34-3.78 13.16.36.33.71.67 1.05 1.02 5.66 5.76 8.77 13.37 8.77 21.42 0 20.11-16.22 36.51-36.27 36.83v2.24c0 6.33-5.21 11.47-11.62 11.47h-5.6z"/><path fill="#ffb817" d="M805.34 594.75h-5.61c-2.59 0-5.05-.76-7.16-2.2a12.6 12.6 0 0 1-7.15 2.2h-5.64c-6.96 0-12.62-5.59-12.62-12.46v-1.06h-10.61c-3.89 0-7.5-1.75-9.91-4.8a12.557 12.557 0 0 1-2.38-10.75l1.79-7.63c1.36-5.65 6.27-9.61 12-9.75v-42.93h-3.96c-6.96 0-12.62-5.66-12.62-12.62v-5.83c0-6.96 5.66-12.62 12.62-12.62h12.43v-5.5c0-6.87 5.67-12.46 12.65-12.46h5.58c2.64 0 5.23.83 7.37 2.35 2.14-1.52 4.73-2.35 7.37-2.35h5.61c6.97 0 12.65 5.59 12.65 12.46v5.48c7.75.7 15.04 4.12 20.59 9.68 6.33 6.28 9.82 14.67 9.82 23.63 0 4.58-1.21 9.06-3.51 12.99.17.16.34.33.5.5 5.84 5.95 9.06 13.8 9.06 22.12 0 20.2-16.18 36.96-36.27 37.8v1.28c.01 6.88-5.65 12.47-12.6 12.47zm-12.77-4.68.61.47a10.61 10.61 0 0 0 6.55 2.23h5.61c5.86 0 10.63-4.7 10.63-10.48v-3.22l.98-.02c19.46-.31 35.3-16.39 35.3-35.84 0-7.79-3.01-15.16-8.49-20.73-.33-.34-.67-.67-1.02-.99l-.6-.56.44-.7c2.37-3.79 3.63-8.15 3.63-12.63 0-8.43-3.28-16.32-9.23-22.23-5.44-5.44-12.63-8.7-20.25-9.17l-.93-.06v-7.33c0-5.78-4.78-10.48-10.66-10.48h-5.61c-2.45 0-4.85.85-6.75 2.39l-.62.51-.62-.51c-1.9-1.54-4.3-2.39-6.75-2.39h-5.58c-5.88 0-10.66 4.7-10.66 10.48v7.48h-14.42c-5.86 0-10.63 4.77-10.63 10.64v5.83c0 5.86 4.77 10.63 10.63 10.63h5.94v46.89h-1.69c-4.94 0-9.2 3.38-10.37 8.22l-1.79 7.62a10.58 10.58 0 0 0 2.01 9.06c2.03 2.57 5.07 4.05 8.35 4.05h12.59v3.04c0 5.78 4.77 10.48 10.64 10.48h5.64c2.4 0 4.66-.77 6.55-2.23l.57-.45z"/><path fill="#ffb817" d="M837.38 528.75c-3.66-3.72-8.7-6.05-14.31-6.18v-.03c7.91-.44 14.18-6.93 14.18-14.94 0-6.21-2.52-11.85-6.62-15.91-4.07-4.07-9.71-6.62-15.91-6.62h-7.88v-16.26c0-.85-.79-1.54-1.73-1.54h-5.61c-.95 0-1.7.69-1.7 1.54v16.42h-11.34v-16.42c0-.85-.76-1.54-1.7-1.54h-5.58c-.95 0-1.73.69-1.73 1.54v16.42H754.1c-.95 0-1.7.76-1.7 1.7v5.83c0 .95.76 1.7 1.7 1.7h14.87v64.76h-10.62c-.79 0-1.48.54-1.67 1.32l-1.8 7.66c-.25 1.07.57 2.11 1.67 2.11h21.52v11.97c0 .85.76 1.54 1.7 1.54h5.64c.95 0 1.7-.69 1.7-1.54v-11.97h10.9v11.97c0 .85.76 1.54 1.7 1.54h5.61c.95 0 1.7-.69 1.7-1.54v-11.97h5.07l4.25-.19c14.87 0 26.94-12.07 26.94-26.91.03-5.64-2.24-10.74-5.9-14.46zm-49-31.45h14.05c6.02 0 10.9 4.88 10.9 10.9 0 2.99-1.23 5.74-3.18 7.72-1.99 1.95-4.7 3.18-7.72 3.18h-14.05v-21.8zm27.45 56a11.9 11.9 0 0 1-8.41 3.47h-19.03v-23.79h19.03c6.55 0 11.91 5.33 11.91 11.88 0 3.3-1.36 6.26-3.5 8.44z"/><path fill="#a9e8ef" d="M502.76 298.52h8.29v224.63h-8.29zm23.02 46.66h8.29v224.63h-8.29zm21.95-85h8.3v224.63h-8.3zm23.55 115.81h8.3v224.64h-8.3zm-283.93-32.96c-35.15-15.02-75.81 1.31-90.83 36.46-15.01 35.15 1.31 75.82 36.47 90.83 35.15 15.01 75.81-1.31 90.83-36.46 15.01-35.16-1.32-75.82-36.47-90.83zm-44.24 103.58c-22.06-9.42-32.31-34.94-22.89-57 9.42-22.06 34.94-32.31 57-22.88 22.06 9.42 32.31 34.94 22.88 57-9.41 22.06-34.94 32.31-56.99 22.88z"/><path fill="#a9e8ef" d="M271.6 379.89c-14.79-6.32-31.89.55-38.21 15.34s.55 31.89 15.34 38.21c14.78 6.32 31.89-.55 38.21-15.34 6.32-14.78-.56-31.89-15.34-38.21zm19.5-13.8-25.46-10.87 21.76-42.81 19.58 8.36zm-37.18 87.04-25.51-10.73-15.64 45.4 19.62 8.26zm53.42-51.68-8.74-26.27 46.47-12.09 6.73 20.21zm-7.86 42.34 9.29-26.08 44.07 19.08-7.15 20.07zm-90.06-41.07 9.83-25.88-45.92-14.03-7.56 19.91zm18.96-35 25.02-11.85-23.4-41.93-19.25 9.12zm62.68 77.99-25.24 11.38 22.61 42.37 19.42-8.76zm-80.85-34.13 8.24 26.43-46.69 11.21-6.34-20.33z"/><path fill="#d0cfd9" d="M801.59 654.02c0 24.1-143.9 43.64-321.41 43.64-177.49 0-321.39-19.53-321.39-43.64s143.9-43.64 321.39-43.64c177.51 0 321.41 19.53 321.41 43.64z"/><path fill="#ffe9ba" d="M657.94 624.19c0 8.29-7.23 15.01-16.16 15.01H273.36c-8.92 0-16.16-6.72-16.16-15.01V407.68c0-8.29 7.24-15.02 16.16-15.02h368.43c8.92 0 16.16 6.73 16.16 15.02v216.51z"/><path fill="#725559" d="M276.63 419.56h360.74v207.06H276.63z"/><path fill="#f3a43d" d="M283.65 600.52v29.77h.35c3.85 7.94 39.7 14.18 83.38 14.18 43.67 0 79.53-6.23 83.37-14.18h.36v-29.77H283.65z"/><path fill="#fed150" d="M314.13 601.46v39.44c8.46 1.3 18.32 2.3 29.11 2.91v-42.35h-29.11zm34.58 7.09v35.52c2.37.1 4.77.19 7.2.25v-35.77h-7.2z"/><path fill="#ffe984" d="M451.12 600.52c0 7.41-37.49 13.43-83.73 13.43s-83.73-6.01-83.73-13.43c0-7.41 37.49-13.43 83.73-13.43s83.73 6.02 83.73 13.43z"/><path fill="#f3a43d" d="M430.82 601.34c0 5.61-28.4 10.17-63.44 10.17s-63.43-4.56-63.43-10.17c0-5.62 28.39-10.17 63.43-10.17 35.04-.01 63.44 4.55 63.44 10.17z"/><ellipse cx="367.38" cy="602.35" fill="#fed150" rx="57.1" ry="9.16"/><path fill="#f3a43d" d="M275.43 563.9v29.77h.36c3.85 7.94 39.7 14.18 83.38 14.18 43.67 0 79.53-6.23 83.38-14.18h.35V563.9H275.43z"/><path fill="#fed150" d="M305.91 564.84v39.44c8.47 1.3 18.33 2.29 29.11 2.9v-42.34h-29.11zm34.59 7.09v35.52c2.36.1 4.76.18 7.19.25v-35.77h-7.19z"/><path fill="#ffe984" d="M442.89 563.9c0 7.41-37.49 13.43-83.73 13.43-46.25 0-83.74-6.02-83.74-13.43 0-7.42 37.49-13.43 83.74-13.43 46.25 0 83.73 6.01 83.73 13.43z"/><path fill="#f3a43d" d="M422.6 564.71c0 5.62-28.4 10.17-63.44 10.17s-63.45-4.55-63.45-10.17c0-5.61 28.4-10.17 63.45-10.17 35.04 0 63.44 4.55 63.44 10.17z"/><path fill="#fed150" d="M416.25 565.73c0 5.06-25.55 9.15-57.09 9.15-31.54 0-57.09-4.09-57.09-9.15 0-5.06 25.55-9.16 57.09-9.16 31.54 0 57.09 4.1 57.09 9.16z"/><path fill="#f3a43d" d="M265.15 527.27v29.77h.36c3.84 7.95 39.69 14.18 83.38 14.18 43.68 0 79.53-6.23 83.38-14.18h.36v-29.77H265.15z"/><path fill="#fed150" d="M295.63 528.22v39.44c8.46 1.31 18.32 2.3 29.11 2.91v-42.34h-29.11zm34.59 7.09v35.52c2.36.1 4.76.19 7.19.25v-35.77h-7.19z"/><path fill="#ffe984" d="M432.63 527.27c0 7.42-37.5 13.43-83.74 13.43-46.25 0-83.74-6.01-83.74-13.43s37.48-13.43 83.74-13.43c46.24.01 83.74 6.02 83.74 13.43z"/><path fill="#f3a43d" d="M412.32 528.09c0 5.62-28.4 10.18-63.43 10.18-35.04 0-63.44-4.55-63.44-10.18 0-5.62 28.4-10.17 63.44-10.17 35.03-.01 63.43 4.55 63.43 10.17z"/><path fill="#fed150" d="M405.98 529.1c0 5.06-25.56 9.16-57.09 9.16-31.54 0-57.1-4.1-57.1-9.16 0-5.05 25.56-9.15 57.1-9.15 31.53 0 57.09 4.1 57.09 9.15z"/><path fill="#f3a43d" d="M283.64 488.16v29.77h.36c3.84 7.95 39.69 14.18 83.38 14.18 43.68 0 79.53-6.23 83.38-14.18h.36v-29.77H283.64z"/><path fill="#fed150" d="M314.12 489.1v39.44c8.46 1.3 18.33 2.3 29.11 2.91V489.1h-29.11zm34.59 7.09v35.52c2.37.1 4.76.19 7.19.25v-35.77h-7.19z"/><path fill="#ffe984" d="M451.12 488.16c0 7.41-37.5 13.43-83.74 13.43-46.25 0-83.74-6.01-83.74-13.43s37.48-13.43 83.74-13.43c46.24.01 83.74 6.02 83.74 13.43z"/><path fill="#f3a43d" d="M430.81 488.98c0 5.62-28.4 10.17-63.43 10.17-35.04 0-63.44-4.55-63.44-10.17s28.4-10.17 63.44-10.17c35.03-.01 63.43 4.55 63.43 10.17z"/><path fill="#fed150" d="M424.47 489.99c0 5.06-25.56 9.16-57.09 9.16-31.54 0-57.1-4.1-57.1-9.16 0-5.05 25.56-9.15 57.1-9.15 31.53 0 57.09 4.1 57.09 9.15z"/><path fill="#f3a43d" d="M455.7 598.69v29.77h.36c3.84 7.95 39.69 14.18 83.38 14.18 43.68 0 79.52-6.23 83.38-14.18h.36v-29.77H455.7z"/><path fill="#fed150" d="M486.18 599.63v39.44c8.47 1.3 18.33 2.3 29.12 2.91v-42.35h-29.12zm34.59 7.09v35.52c2.36.1 4.76.19 7.19.25v-35.77h-7.19z"/><path fill="#ffe984" d="M623.19 598.69c0 7.42-37.5 13.43-83.74 13.43-46.25 0-83.74-6.01-83.74-13.43s37.49-13.43 83.74-13.43c46.23 0 83.74 6.01 83.74 13.43z"/><path fill="#f3a43d" d="M602.88 599.5c0 5.62-28.4 10.17-63.43 10.17-35.04 0-63.44-4.55-63.44-10.17s28.4-10.17 63.44-10.17c35.03 0 63.43 4.55 63.43 10.17z"/><path fill="#fed150" d="M596.54 600.52c0 5.06-25.56 9.16-57.09 9.16-31.54 0-57.1-4.1-57.1-9.16 0-5.05 25.56-9.15 57.1-9.15 31.53-.01 57.09 4.09 57.09 9.15z"/><path fill="#f3a43d" d="M476.01 564.34v29.77h.36c3.84 7.95 39.69 14.18 83.38 14.18 43.68 0 79.53-6.23 83.38-14.18h.36v-29.77H476.01z"/><path fill="#fed150" d="M506.49 565.29v39.44c8.47 1.3 18.33 2.3 29.12 2.9v-42.34h-29.12zm34.59 7.09v35.52c2.36.1 4.76.19 7.19.25v-35.77h-7.19z"/><path fill="#ffe984" d="M643.49 564.34c0 7.42-37.5 13.43-83.74 13.43-46.25 0-83.74-6.01-83.74-13.43 0-7.41 37.49-13.43 83.74-13.43 46.24.01 83.74 6.02 83.74 13.43z"/><path fill="#f3a43d" d="M623.18 565.16c0 5.62-28.4 10.18-63.44 10.18-35.03 0-63.44-4.55-63.44-10.18 0-5.61 28.4-10.17 63.44-10.17s63.44 4.55 63.44 10.17z"/><path fill="#fed150" d="M616.84 566.18c0 5.06-25.56 9.16-57.09 9.16-31.53 0-57.1-4.1-57.1-9.16 0-5.05 25.56-9.15 57.1-9.15 31.53-.01 57.09 4.09 57.09 9.15z"/><path fill="#efcd92" d="M214.75 626.62h481.44v25.17H214.75z"/><path fill="#80d2d6" d="M210.87 584.82v-6.95c-4.9-.22-9.66-1.53-12.44-3.15l2.19-8.56c3.08 1.68 7.4 3.22 12.15 3.22 4.17 0 7.02-1.61 7.02-4.54 0-2.78-2.34-4.53-7.75-6.36-7.83-2.63-13.18-6.29-13.18-13.39 0-6.44 4.54-11.49 12.37-13.03v-6.95h7.17v6.44c4.9.22 8.19 1.24 10.61 2.41l-2.12 8.27c-1.9-.81-5.27-2.49-10.54-2.49-4.76 0-6.29 2.05-6.29 4.1 0 2.41 2.56 3.95 8.78 6.29 8.71 3.08 12.22 7.1 12.22 13.69 0 6.51-4.61 12.07-13.02 13.54v7.46h-7.17z"/><path fill="#ffd9a7" d="m744.06 646.88 3.89 8.31-8.48 1.47-4.47-10.87z"/><path fill="#e66254" d="M737.85 653.94s5.33 2.8 8.46-2.62c0 0 11.22 10.88 2.56 16.13-8.65 5.25-26.35 9.46-30.07 6.22-5.35-4.66 8.38-14.04 19.05-19.73z"/><path fill="#ffd9a7" d="m677.18 651.22.46 9.16-8.41-1.85-.02-11.76z"/><path fill="#52456b" d="M719.47 482.37s4.85 21.01-18.18 40.16l-27.88 49.78s10.96 52.34 6.05 75.98c-1.89 9.06-12.28 5.38-13.47 1.91-8.32-24.41-24.22-73.34-15.95-101.13 7.07-23.72 22.22-38.75 22.22-38.75l47.21-27.95z"/><path fill="#e66254" d="M668.77 655.4s3.87 4.61 8.81.77c0 0 6.27 14.32-3.73 15.9-9.99 1.58-27.97-1.22-30.19-5.62-3.19-6.34 13.07-9.82 25.11-11.05z"/><path fill="#675781" d="M719.31 474.59s12.44 17.61-1.63 44.06l-6.97 56.62s29.96 44.29 34.36 68.04c1.68 9.1-9.34 9.63-11.74 6.87-16.94-19.44-50.18-58.72-53.03-87.57-2.43-24.63 5.9-44.28 5.9-44.28l33.11-43.74z"/><path fill="#afae35" d="M674.57 421.47c2.36-1.71 7.26-4.27 9.06 2.01 1.79 6.28-17.1 38.62-22.92 43.52-5.82 4.9-44.24 15.32-44.24 15.32s-4.16-.45-1.13-5.49l36.51-16.48s14.57-32.95 22.72-38.88z"/><path fill="#d8d844" d="M706.29 420.83c9.08 7.58 16.35 25.31 17.86 82.55.33 12.59-57.28 9.95-57.04-2.64.64-33.5-11.91-56.25 5.12-78 .01 0 16.06-16.93 34.06-1.91z"/><path fill="#efc18f" d="M691.96 399.34s-3.51 9.35 0 15.34c2.24 3.81-14.59 16.61-14.23 11.48.47-6.62 3.61-10.67.03-18.11l14.2-8.71z"/><path fill="#ffd9a8" d="M677.25 383.47c-5.34 5.55-10.21 29.09-4.08 33.91 2.67 2.09 13.11-.95 19.28-11.48 2.54-4.33 5.54-12.34.9-20.04-2.1-3.49-9.89-8.86-16.1-2.39z"/><path fill="#9b4d34" d="M668.13 386.18s2.86 4 11.69 4.9c8.82.9 10.3.25 9.51 2.38-2.32 6.27 4.25 6.24 1.42 13.72-2.84 7.49 2.81.77 3.59-.36.78-1.14 8.04-10.44 2.51-20.81-5.53-10.38-21.26-6.1-28.72.17z"/><path fill="#f3a43d" d="M682.77 484.37v27.99h-.34c-3.61 7.47-37.32 13.33-78.39 13.33s-74.77-5.86-78.39-13.33h-.34v-27.99h157.46z"/><path fill="#fed150" d="M654.12 485.25v37.08c-7.96 1.23-17.23 2.16-27.37 2.73v-39.81h27.37zm-32.53 6.67v33.39c-2.22.1-4.47.18-6.76.24v-33.63h6.76z"/><path fill="#ffe984" d="M525.31 484.37c0 6.98 35.26 12.62 78.73 12.62 43.48 0 78.73-5.65 78.73-12.62 0-6.97-35.25-12.62-78.73-12.62-43.47-.01-78.73 5.64-78.73 12.62z"/><path fill="#f3a43d" d="M544.4 485.13c0 5.29 26.7 9.57 59.64 9.57s59.64-4.28 59.64-9.57c0-5.28-26.7-9.56-59.64-9.56-32.93 0-59.64 4.28-59.64 9.56z"/><path fill="#fed150" d="M550.36 486.09c0 4.76 24.03 8.61 53.68 8.61s53.68-3.86 53.68-8.61-24.03-8.6-53.68-8.6c-29.64-.01-53.68 3.84-53.68 8.6z"/><path fill="#efc18f" d="M674.98 507.01s-16.39 5.36-11.19 6.78c5.19 1.41 9.65 2.39 15.42-3.89l-4.23-2.89z"/><path fill="#afae35" d="M697.19 429.04c1-2.74 4.26-8.23 8.63-3.38 6.93 7.71 7.29 41.6 5.19 48.91-2.1 7.31-32.28 36.35-32.28 36.35s-4.42-.18-4.42-4.54l26-35.48c0 .01-6.59-32.4-3.12-41.86z"/><path fill="#f7f7fc" d="M358.32 495.08c1.71-1.8 4.52-8.81 4.52-8.81s3.18 6.85 4.98 8.56c1.8 1.7 8.82 4.52 8.82 4.52s-6.86 3.18-8.56 4.98c-1.7 1.8-4.52 8.81-4.52 8.81s-3.18-6.85-4.98-8.56c-1.79-1.7-8.81-4.52-8.81-4.52s6.84-3.18 8.55-4.98zm38.01-44.73c1.7-1.8 4.52-8.81 4.52-8.81s3.19 6.85 4.98 8.56c1.8 1.7 8.81 4.52 8.81 4.52s-6.85 3.19-8.55 4.98c-1.71 1.8-4.52 8.81-4.52 8.81s-3.18-6.85-4.98-8.56c-1.8-1.71-8.81-4.52-8.81-4.52s6.85-3.19 8.55-4.98zm-91.71 78.45c1.7-1.8 4.52-8.81 4.52-8.81s3.18 6.85 4.98 8.56c1.8 1.7 8.81 4.52 8.81 4.52s-6.85 3.18-8.56 4.98c-1.7 1.8-4.52 8.81-4.52 8.81s-3.18-6.85-4.98-8.56c-1.79-1.7-8.81-4.52-8.81-4.52s6.86-3.19 8.56-4.98zm13.44 54.59c1.71-1.8 4.52-8.81 4.52-8.81s3.19 6.85 4.98 8.56c1.8 1.7 8.81 4.52 8.81 4.52s-6.86 3.18-8.56 4.98c-1.7 1.8-4.52 8.81-4.52 8.81s-3.18-6.85-4.98-8.56c-1.8-1.7-8.81-4.52-8.81-4.52s6.85-3.19 8.56-4.98z"/></svg>